<svg version="1.1" id="Layer_1" xmlns="http://www.w3.org/2000/svg" xmlns:xlink="http://www.w3.org/1999/xlink" x="0px" y="0px"
	 width="100%" viewBox="0 0 1024 560" enable-background="new 0 0 1024 560" xml:space="preserve">
<path fill="#000000" opacity="1.000000" stroke="none" 
	d="
M406.142517,267.062714 
	C403.323486,266.793518 400.793457,267.736084 398.409088,266.251526 
	C399.634186,264.122620 401.626434,264.101349 403.252075,263.565765 
	C429.069885,255.059723 450.884888,240.870804 467.744690,219.227478 
	C475.055756,209.842087 483.797943,201.776474 494.620514,196.455994 
	C512.445801,187.692902 530.192505,186.533386 547.043823,198.679886 
	C555.220825,204.573914 560.441345,212.574905 560.249329,223.185547 
	C560.182617,226.869492 559.047607,230.247223 556.601501,233.515152 
	C556.039185,232.726959 555.579163,232.378296 555.546082,231.992935 
	C554.504639,219.869827 548.759827,212.515961 538.186096,209.836060 
	C530.202698,207.812683 518.664978,213.063370 513.201294,221.206436 
	C504.256104,234.538284 509.046417,249.648758 524.120361,255.347275 
	C536.208252,259.916931 548.077026,258.239960 559.601379,253.351166 
	C563.046570,251.889664 565.655640,252.035614 568.891846,253.899597 
	C578.797302,259.604767 589.205505,259.875275 599.577637,255.260422 
	C602.726807,253.859268 605.080566,254.028336 607.846985,255.959610 
	C613.793274,260.110779 620.415955,263.049896 627.427307,265.203735 
	C627.294128,265.823486 627.160950,266.443207 627.027771,267.062927 
	C553.557678,267.062927 480.087555,267.062927 406.142517,267.062714 
z"/>
<path fill="#000000" opacity="1.000000" stroke="none" 
	d="
M293.018738,315.000000 
	C293.016632,302.682739 293.123291,290.863892 292.953583,279.049042 
	C292.894653,274.944550 294.369873,273.410034 298.502228,273.630646 
	C309.283508,274.206299 320.173340,272.511230 330.868530,274.636139 
	C349.948090,278.426849 360.278046,293.543701 358.232605,314.185791 
	C356.594604,330.715729 342.361755,343.075317 324.454651,343.363342 
	C315.635468,343.505188 306.809723,343.278748 297.992310,343.468964 
	C294.258240,343.549500 292.970245,342.029175 293.020874,338.468231 
	C293.129730,330.813690 293.032043,323.156250 293.018738,315.000000 
M337.760590,293.767456 
	C330.188477,285.460297 320.202576,287.146362 310.634644,287.331207 
	C308.033264,287.381409 308.308777,289.742126 308.296753,291.534729 
	C308.256470,297.532532 308.280792,303.530731 308.280670,309.528778 
	C308.280487,316.307465 308.280579,323.086182 308.280579,330.172302 
	C315.426727,330.416229 321.982239,330.850037 328.250427,329.139923 
	C342.407257,325.277588 347.291901,307.797577 337.760590,293.767456 
z"/>
<path fill="#000000" opacity="1.000000" stroke="none" 
	d="
M565.348938,344.273132 
	C550.161072,341.399353 540.246643,331.079254 539.680176,318.004974 
	C539.016052,302.675568 546.506409,291.450653 560.072632,287.444946 
	C579.889282,281.593719 598.394287,295.195129 598.382629,315.404327 
	C598.380249,319.537567 596.936096,321.042542 592.889893,320.987732 
	C582.400818,320.845642 571.908508,320.912323 561.417725,320.956146 
	C559.486511,320.964203 557.402832,320.550415 555.772522,322.081055 
	C557.848999,333.026367 571.908997,335.065582 585.048645,326.324982 
	C586.944153,326.660004 587.912659,328.370483 589.244690,329.526917 
	C594.807312,334.356140 594.680298,335.013977 588.703796,339.139984 
	C581.729858,343.954559 573.955444,344.881714 565.348938,344.273132 
M560.122070,301.468384 
	C557.198975,303.532166 555.217224,306.153961 554.605103,310.597198 
	C564.509827,310.150513 573.888245,310.043213 583.483093,310.484650 
	C581.133667,299.832764 570.916138,296.010254 560.122070,301.468384 
z"/>
<path fill="#000000" opacity="1.000000" stroke="none" 
	d="
M622.702515,300.524078 
	C620.130188,301.786499 617.928467,302.912018 615.694702,304.053925 
	C613.094849,301.674988 612.378784,298.503784 611.053406,295.687775 
	C610.059814,293.576721 611.053345,292.228394 612.964966,291.280792 
	C623.367371,286.124054 634.146973,284.314392 645.339478,288.193359 
	C654.449341,291.350525 658.803772,298.432373 659.176819,307.668671 
	C659.600098,318.149048 659.204529,328.660339 659.327454,339.156281 
	C659.366760,342.507080 657.834412,343.836945 654.789307,343.344025 
	C651.131287,342.751892 646.042053,345.859406 644.327209,339.023682 
	C638.703369,343.371429 632.444519,344.800751 625.573242,344.360779 
	C615.360962,343.706818 607.057739,336.185150 606.853271,327.023743 
	C606.651855,317.996460 614.242615,310.574646 624.828735,309.837830 
	C629.971069,309.479889 635.156250,309.783203 640.319031,309.659943 
	C644.473938,309.560791 645.299194,308.110931 643.468872,304.339874 
	C641.945068,301.200226 639.193604,299.718353 635.900513,299.312897 
	C631.572205,298.780029 627.249512,298.850220 622.702515,300.524078 
M625.293335,331.474487 
	C633.433838,334.351227 641.411011,331.625061 643.893433,325.192535 
	C645.111084,322.037292 644.777466,319.966522 640.791016,320.012451 
	C636.660034,320.060089 632.528015,320.076019 628.398743,320.190002 
	C625.535950,320.269043 623.210144,321.395233 622.204407,324.261627 
	C621.197632,327.130798 622.096924,329.439087 625.293335,331.474487 
z"/>
<path fill="#000000" opacity="1.000000" stroke="none" 
	d="
M441.774414,286.020081 
	C457.632507,288.417816 466.494904,295.928375 469.458588,309.144928 
	C472.716187,323.672241 465.152405,337.497803 451.140533,342.627686 
	C431.739502,349.730652 411.731323,338.287781 409.394440,318.346832 
	C407.621796,303.220917 418.033417,285.785950 441.774414,286.020081 
M431.930298,301.223969 
	C421.292145,307.387238 422.011505,323.545624 431.447052,329.390961 
	C437.689056,333.257812 445.945465,332.245941 451.079529,326.843872 
	C456.374878,321.272125 456.968719,312.328857 452.484497,305.685120 
	C448.184814,299.314850 440.501251,297.442200 431.930298,301.223969 
z"/>
<path fill="#000000" opacity="1.000000" stroke="none" 
	d="
M718.871887,333.944885 
	C718.876038,326.790527 718.915161,320.128998 718.871826,313.467987 
	C718.813110,304.439911 714.390564,299.432373 706.429443,299.282043 
	C698.427002,299.130920 692.524963,304.963043 692.339478,313.535095 
	C692.163086,321.691650 692.112000,329.858582 692.324036,338.012695 
	C692.431885,342.161926 690.874268,343.872620 686.795349,343.405243 
	C685.973816,343.311096 685.131653,343.401062 684.299011,343.399353 
	C677.632019,343.385681 677.610046,343.385193 677.605286,336.817871 
	C677.595032,322.662598 677.601440,308.507355 677.617432,294.352081 
	C677.625977,286.786530 677.641235,286.817688 685.468689,286.860443 
	C688.988159,286.879669 692.617493,286.597961 691.739563,292.811279 
	C697.868286,288.127380 703.951721,285.691101 710.819946,286.132690 
	C725.502869,287.076813 733.169861,295.251282 734.003784,311.442596 
	C734.474243,320.578369 734.091858,329.756653 734.165527,338.915192 
	C734.190125,341.978851 733.072632,343.690063 729.766479,343.389496 
	C729.106262,343.329407 728.435120,343.389526 727.769043,343.393951 
	C718.851562,343.453369 718.851562,343.453369 718.871887,333.944885 
z"/>
<path fill="#000000" opacity="1.000000" stroke="none" 
	d="
M526.174683,326.832703 
	C534.300659,331.971039 534.353088,333.105164 527.018433,338.729553 
	C514.949951,347.983978 495.496796,346.031067 485.148315,334.526215 
	C475.419800,323.710541 475.993622,305.697113 486.410309,294.909760 
	C496.834595,284.114532 516.480957,283.014709 527.985229,292.686432 
	C529.947998,294.336548 533.267029,296.436615 531.895630,298.944855 
	C530.137268,302.160980 526.483765,304.254272 522.843323,305.507294 
	C521.540710,305.955597 520.690002,304.194305 519.702087,303.353943 
	C512.874023,297.545746 503.371155,297.690063 497.576721,303.704254 
	C491.791290,309.709137 491.587860,320.389679 497.141815,326.542358 
	C502.950500,332.977203 512.094360,333.658783 519.170471,328.046234 
	C521.256409,326.391754 522.968933,323.961487 526.174683,326.832703 
z"/>
<path fill="#000000" opacity="1.000000" stroke="none" 
	d="
M369.311432,320.503540 
	C368.174316,309.580292 368.174591,309.620941 378.396240,309.554993 
	C384.053101,309.518524 389.713226,309.123016 395.364014,309.247192 
	C401.241882,309.376343 398.874573,314.093231 399.285004,317.128784 
	C399.697876,320.182587 398.856506,322.302795 395.083160,322.239960 
	C387.757568,322.118011 380.428345,322.221252 373.100647,322.208801 
	C371.766022,322.206543 370.407715,322.163391 369.311432,320.503540 
z"/>
<path fill="#000000" opacity="1.000000" stroke="none" 
	d="
M451.247772,384.008118 
	C450.637299,385.641388 450.263550,387.040741 449.903198,388.389801 
	C447.157990,389.070374 446.928192,387.316956 446.867340,385.616180 
	C446.766510,382.799042 446.640320,379.963806 446.848663,377.160278 
	C447.032196,374.691467 445.664368,371.605713 448.821777,370.036835 
	C451.799652,368.557129 459.654388,370.044769 461.503601,372.345367 
	C463.798706,375.200653 463.798889,378.273285 461.448151,380.975250 
	C458.986542,383.804626 462.916016,385.770050 462.108612,388.484955 
	C459.689819,389.344360 458.507019,387.705750 457.341339,386.121643 
	C455.863403,384.113159 454.207764,382.635468 451.247772,384.008118 
M458.417175,375.111572 
	C456.125671,372.848358 453.592987,372.201263 451.313263,374.835663 
	C450.454346,375.828186 450.238525,377.752625 451.343323,378.978058 
	C452.586700,380.357330 454.407928,379.837646 455.995361,379.667175 
	C458.263245,379.423676 458.965027,377.928406 458.417175,375.111572 
z"/>
<path fill="#000000" opacity="1.000000" stroke="none" 
	d="
M600.488464,388.934326 
	C599.100891,389.039795 598.082642,389.192932 597.113892,389.037231 
	C591.781372,388.180206 588.032471,384.145477 588.004395,379.334473 
	C587.976257,374.532990 591.631897,370.460663 596.560730,369.802643 
	C601.613403,369.128082 606.479126,371.792511 607.900391,376.012177 
	C609.656860,381.227203 607.675537,385.585571 602.286438,388.323151 
	C601.844421,388.547668 601.350464,388.669769 600.488464,388.934326 
M601.789001,384.282013 
	C604.060669,382.482117 605.228455,380.272827 604.228210,377.344818 
	C603.074158,373.966583 599.530701,372.280243 596.161194,373.660461 
	C592.971497,374.967041 591.645142,377.532440 592.408569,380.875214 
	C593.219971,384.428131 596.637207,385.798035 601.789001,384.282013 
z"/>
<path fill="#000000" opacity="1.000000" stroke="none" 
	d="
M549.818726,377.314301 
	C553.224060,378.026459 553.967957,376.358002 553.978210,373.760193 
	C553.983948,372.303558 553.905823,370.316650 555.862915,370.269928 
	C558.208618,370.213898 558.012939,372.426453 558.047913,373.997864 
	C558.132812,377.808746 558.090759,381.624359 558.006042,385.435974 
	C557.977173,386.738312 557.893677,388.325287 556.084839,388.378143 
	C554.307068,388.430084 553.920410,386.934448 553.999390,385.587036 
	C554.234985,381.563843 551.903442,381.041443 548.634155,381.095245 
	C545.200439,381.151764 545.163452,383.384033 544.981567,385.795868 
	C544.879761,387.146027 544.535400,388.618134 542.719299,388.403778 
	C541.300415,388.236298 541.005981,386.921478 540.989258,385.749023 
	C540.928101,381.440247 540.924866,377.129822 540.972229,372.820831 
	C540.985046,371.649475 541.243164,370.328003 542.689880,370.181946 
	C544.499878,369.999207 544.948364,371.455414 544.902893,372.812317 
	C544.794067,376.057068 545.799622,377.963318 549.818726,377.314301 
z"/>
<path fill="#000000" opacity="1.000000" stroke="none" 
	d="
M578.664062,388.017883 
	C572.671509,389.766235 568.151550,388.553894 565.445374,384.730194 
	C562.686218,380.831665 563.386230,375.354492 567.051697,372.160736 
	C570.923523,368.787170 577.408813,368.879852 581.173401,372.362640 
	C584.726868,375.650085 585.314392,381.146484 582.358276,384.963135 
	C581.474976,386.103607 580.150635,386.902496 578.664062,388.017883 
M575.105957,373.338898 
	C571.181091,372.883057 568.672302,374.796906 567.742249,378.394775 
	C566.978760,381.348114 568.731812,383.496399 571.314026,384.699493 
	C574.636658,386.247620 577.734741,385.357056 579.399170,382.240204 
	C581.515686,378.276733 579.708984,375.312927 575.105957,373.338898 
z"/>
<path fill="#000000" opacity="1.000000" stroke="none" 
	d="
M511.463379,371.411530 
	C512.177490,374.644012 510.321228,374.085571 508.629852,373.778259 
	C506.737946,373.434479 504.694946,372.513947 503.470612,375.113861 
	C504.347534,377.693329 506.898865,377.431641 508.752808,378.214172 
	C511.421173,379.340454 513.557617,380.870605 513.102783,384.064697 
	C512.635803,387.344421 510.210876,388.711517 507.134430,389.079285 
	C504.923615,389.343567 502.832367,388.740509 500.811401,387.971313 
	C499.578430,387.502014 498.142395,386.823364 498.620972,385.153107 
	C499.162201,383.264343 500.618195,384.029144 501.907043,384.340759 
	C504.092896,384.869232 506.366302,385.901154 508.361298,383.808533 
	C508.090210,381.196075 505.850250,381.358185 504.272827,380.814545 
	C501.046936,379.702637 498.169495,378.210052 499.091309,374.197693 
	C499.951904,370.452026 503.086273,369.688965 506.497162,369.736572 
	C508.198700,369.760315 509.796112,370.087036 511.463379,371.411530 
z"/>
<path fill="#000000" opacity="1.000000" stroke="none" 
	d="
M408.181122,373.646851 
	C406.642242,374.691956 406.490814,375.687836 407.893921,376.483582 
	C408.894165,377.050903 410.035126,377.382111 411.132111,377.764618 
	C414.027771,378.774353 417.069275,379.804565 416.893219,383.613647 
	C416.776245,386.145081 415.123260,387.856476 412.652130,388.610382 
	C409.064484,389.704834 405.731781,389.132233 402.759674,386.854858 
	C402.069946,386.326385 401.893005,385.441833 402.543304,384.651611 
	C403.329010,383.696747 404.271637,383.990265 405.260376,384.299377 
	C407.662811,385.050476 410.192963,386.792664 412.311646,383.726013 
	C411.570404,380.810089 408.911560,381.211334 407.074829,380.469849 
	C404.572388,379.459656 402.628082,378.282959 402.678528,375.199738 
	C402.723022,372.481750 404.074951,370.704620 406.587708,370.100861 
	C409.530304,369.393738 412.560730,369.235291 415.120697,371.341248 
	C415.487152,371.642731 415.615631,372.588593 415.448425,373.104736 
	C415.160095,373.994781 414.280243,374.223663 413.398773,374.019806 
	C411.779205,373.645294 410.181854,373.134369 408.181122,373.646851 
z"/>
<path fill="#000000" opacity="1.000000" stroke="none" 
	d="
M524.447266,374.307434 
	C522.349670,376.354797 520.744629,378.280090 521.807251,381.112396 
	C522.786316,383.722137 524.823364,384.954376 527.480774,385.392609 
	C529.898987,385.791443 531.898132,382.662262 534.850708,384.765167 
	C533.689575,388.787872 530.317078,389.057465 527.136292,389.090576 
	C522.662354,389.137207 518.744995,385.696991 517.856628,381.413422 
	C516.921326,376.903137 518.961487,372.292572 523.117065,370.650909 
	C527.309937,368.994476 531.444946,368.977509 535.153992,373.244843 
	C531.546875,376.037933 527.770935,371.382385 524.447266,374.307434 
z"/>
<path fill="#000000" opacity="1.000000" stroke="none" 
	d="
M429.416687,388.964783 
	C422.466797,385.872162 420.065765,375.816650 424.582306,370.208191 
	C426.657257,370.680695 426.261871,372.387360 426.315613,373.807343 
	C426.403778,376.135925 426.168365,378.500275 426.490479,380.790314 
	C426.873077,383.510071 428.471466,385.580841 431.476196,385.315491 
	C434.106384,385.083221 435.574463,383.246246 435.667328,380.538116 
	C435.758636,377.875549 435.733276,375.208923 435.829742,372.546631 
	C435.875244,371.291901 436.343628,370.155060 437.842346,370.214813 
	C439.426544,370.277985 439.579254,371.629211 439.561584,372.777344 
	C439.510315,376.105927 439.701141,379.499451 439.115387,382.744446 
	C438.213348,387.741119 434.474274,389.244354 429.416687,388.964783 
z"/>
<path fill="#000000" opacity="1.000000" stroke="none" 
	d="
M476.931885,381.498657 
	C471.264099,381.556793 474.988434,386.868805 472.498413,388.615021 
	C469.972748,388.922058 469.856049,387.140594 469.809143,385.473877 
	C469.725342,382.496368 469.612732,379.505157 469.806732,376.538940 
	C469.956146,374.254395 468.513306,370.750031 471.795044,370.149200 
	C475.693970,369.435394 480.019958,368.653870 484.005981,371.066589 
	C482.501312,374.087250 480.259521,373.086700 478.440186,373.328308 
	C476.591827,373.573761 473.890656,372.651764 473.694153,375.515778 
	C473.481049,378.621613 476.299377,377.737091 478.097290,377.951385 
	C479.815735,378.156219 481.820251,377.660126 482.561066,379.994659 
	C481.282227,382.558197 479.143219,381.519196 476.931885,381.498657 
z"/>
<path fill="#000000" opacity="1.000000" stroke="none" 
	d="
M618.196167,382.469482 
	C619.307007,385.702728 621.818542,384.750549 623.823486,385.078308 
	C625.115356,385.289459 626.750183,385.221008 626.829651,386.993958 
	C626.911682,388.822571 625.295410,388.962463 623.980957,389.015472 
	C621.822876,389.102478 619.653381,389.098785 617.497070,388.979828 
	C615.427856,388.865692 613.988647,387.838654 613.952271,385.589691 
	C613.882141,381.264221 613.868347,376.937134 613.901794,372.611237 
	C613.911377,371.377563 614.389587,370.230988 615.854980,370.185272 
	C617.386536,370.137482 617.792725,371.385376 617.854553,372.559265 
	C618.020508,375.714905 618.041870,378.878174 618.196167,382.469482 
z"/>
</svg>