<svg version="1.1" id="Layer_1" xmlns="http://www.w3.org/2000/svg" xmlns:xlink="http://www.w3.org/1999/xlink" x="0px" y="0px"
	 width="100%" viewBox="0 0 1024 560" enable-background="new 0 0 1024 560" xml:space="preserve">
<path fill="#000000" opacity="1.000000" stroke="none" 
	d="
M427.538147,312.458801 
	C413.949493,297.225769 400.605927,282.247620 386.229462,266.110077 
	C386.229462,276.598572 386.219879,285.524109 386.233795,294.449646 
	C386.240051,298.446503 386.263184,302.443787 386.331970,306.439972 
	C386.460144,313.885864 386.763611,314.428680 393.454590,318.645935 
	C386.939423,318.645935 381.403381,318.645935 375.867340,318.645935 
	C383.341980,314.848480 381.578186,307.896393 381.688354,301.712585 
	C381.884155,290.723480 381.820801,279.729919 381.969788,268.739655 
	C382.046448,263.083221 382.368347,257.419800 374.618378,255.555008 
	C380.524261,252.368576 386.425568,253.174805 390.064026,257.226318 
	C402.968048,271.595276 415.821899,286.009369 428.698029,300.403412 
	C429.680969,301.502258 430.689453,302.578278 431.669312,303.646637 
	C433.267914,302.801971 432.744110,301.478058 432.721832,300.452393 
	C432.472473,288.972870 433.172607,277.479950 432.000275,266.009918 
	C431.253082,258.699524 431.424438,258.682007 424.931885,254.344482 
	C431.555786,254.344482 437.261200,254.344482 442.966614,254.344482 
	C434.487885,258.131439 437.414307,265.744446 437.264404,272.048523 
	C436.935913,285.864075 437.121582,299.691406 437.027771,313.513458 
	C437.013611,315.598907 437.584106,317.888611 435.588104,319.826691 
	C431.702606,318.912384 430.566803,314.864166 427.538147,312.458801 
z"/>
<path fill="#000000" opacity="1.000000" stroke="none" 
	d="
M507.695099,293.389954 
	C509.647705,298.224213 511.397278,302.726227 513.247437,307.186523 
	C515.005310,311.424286 515.939331,316.311523 521.635376,318.149445 
	C515.446350,319.493988 509.605927,319.392883 502.297424,318.929932 
	C506.848602,315.596527 506.295776,312.493408 504.708374,309.135559 
	C503.501556,306.582855 502.647461,303.864777 501.604218,301.233063 
	C496.868347,289.286072 499.397125,291.304474 486.765686,291.318665 
	C473.786377,291.333252 477.187286,289.235321 472.277191,301.506317 
	C471.412048,303.668396 470.790283,305.927216 469.942566,308.096954 
	C468.429291,311.970184 467.187378,315.729858 472.589661,318.318359 
	C467.026917,319.681732 461.859833,319.436584 456.395294,318.274200 
	C463.265717,315.314880 464.576019,308.827362 466.908661,303.131897 
	C473.345062,287.416473 479.624207,271.636719 486.003754,255.897873 
	C486.658600,254.282257 486.860748,251.974655 489.243134,251.999832 
	C491.337280,252.021942 491.594757,254.151962 492.195374,255.603790 
	C497.350342,268.065216 502.432281,280.556854 507.695099,293.389954 
M489.272461,286.911743 
	C491.189392,286.692932 493.268463,287.392242 495.589203,285.483734 
	C493.045441,279.054810 490.446686,272.486877 487.847931,265.918976 
	C487.336121,266.006897 486.824310,266.094818 486.312500,266.182739 
	C483.673615,272.724701 481.034698,279.266693 478.252075,286.164978 
	C482.107208,287.303192 485.268127,286.729431 489.272461,286.911743 
z"/>
<path fill="#000000" opacity="1.000000" stroke="none" 
	d="
M604.296631,270.033173 
	C604.309326,279.019318 604.041443,287.524384 604.416565,296.001007 
	C604.775208,304.105164 607.844421,311.222473 615.794434,314.506348 
	C622.989746,317.478455 630.220764,316.699127 636.433167,311.481781 
	C641.149231,307.521088 643.562195,302.274628 643.666077,296.165405 
	C643.827454,286.676331 643.749939,277.182617 643.721436,267.691071 
	C643.706055,262.574280 644.472168,257.057434 637.386963,254.779816 
	C643.270020,253.470627 648.601379,253.538116 654.671082,254.711731 
	C646.713013,257.104462 648.323914,263.192322 648.268433,268.511505 
	C648.174683,277.502930 648.393616,286.500793 648.145020,295.486633 
	C647.817139,307.343781 640.982300,316.371185 630.447388,319.421234 
	C618.968750,322.744537 606.631165,318.980682 600.402893,310.217621 
	C596.988647,305.413788 595.849304,299.900024 595.794006,294.155090 
	C595.699463,284.331085 595.682373,274.504578 595.802307,264.681183 
	C595.852722,260.557587 596.050049,256.577026 591.042236,254.350830 
	C596.940186,254.350830 602.838074,254.350830 610.265198,254.350830 
	C602.092102,257.868225 604.693970,264.142487 604.296631,270.033173 
z"/>
<path fill="#000000" opacity="1.000000" stroke="none" 
	d="
M542.807861,286.000000 
	C542.809998,278.346954 542.718689,271.192200 542.850342,264.041565 
	C542.920532,260.229401 542.927917,256.641479 538.227966,254.753708 
	C544.388977,253.484177 550.314209,253.631805 556.878906,254.714615 
	C550.080322,256.824921 551.388916,261.969025 551.380005,266.492188 
	C551.352356,280.465424 551.347534,294.439026 551.413208,308.412079 
	C551.444153,314.988770 552.130554,315.517670 558.487305,315.687592 
	C562.841064,315.803925 567.103882,315.107819 571.404968,314.709198 
	C576.033447,314.280243 578.658997,310.500671 582.123962,307.883514 
	C584.786255,316.098267 582.632629,319.262543 574.951233,319.263855 
	C564.637573,319.265594 554.323853,319.297577 544.010315,319.275787 
	C542.240662,319.272034 540.383850,319.632874 538.009277,318.229553 
	C544.335388,315.235931 542.713379,309.819061 542.785950,304.964569 
	C542.877930,298.810974 542.807495,292.654968 542.807861,286.000000 
z"/>
<path fill="#000000" opacity="1.000000" stroke="none" 
	d="
M482.700073,369.905914 
	C480.747467,367.249023 480.656799,369.271729 480.455292,370.518127 
	C480.003876,373.309784 481.132751,376.392212 479.409576,378.854004 
	C476.951141,378.947540 476.792969,377.516327 476.773010,376.192505 
	C476.705109,371.695465 476.721313,367.196960 476.735168,362.699097 
	C476.739960,361.144104 476.935089,359.616425 478.820953,359.196960 
	C480.744110,358.769226 481.972260,359.737518 482.888641,361.333710 
	C485.007141,365.023712 485.608124,369.486725 488.952545,373.405975 
	C490.669830,369.464111 492.209351,366.023438 493.667480,362.548645 
	C494.561371,360.418427 495.614258,358.498810 498.372986,359.151428 
	C500.874603,359.743195 500.330750,361.924225 500.349365,363.669861 
	C500.395538,368.000519 500.359314,372.332489 500.312286,376.663422 
	C500.299286,377.862762 500.101837,379.175720 498.535126,379.159485 
	C497.003357,379.143646 496.759888,377.864166 496.747009,376.648193 
	C496.713562,373.488281 496.735809,370.327759 496.735809,366.445465 
	C493.876587,369.604950 493.258240,373.195862 491.593140,376.206726 
	C490.857452,377.536987 490.280945,379.075989 488.486511,379.049469 
	C486.689087,379.022919 486.101868,377.512817 485.495300,376.104004 
	C484.639740,374.116608 483.721375,372.156311 482.700073,369.905914 
z"/>
<path fill="#000000" opacity="1.000000" stroke="none" 
	d="
M527.491089,366.941071 
	C528.177307,364.037750 525.996582,359.988953 529.769836,359.307007 
	C534.336182,358.481720 539.408813,357.546417 543.608337,360.879333 
	C545.706604,362.544556 546.609741,374.533936 545.056824,376.647552 
	C543.398193,378.905060 540.975159,379.203857 538.423706,379.311401 
	C527.689941,379.763641 527.691345,379.780548 527.549622,369.341461 
	C527.540649,368.679504 527.509705,368.017853 527.491089,366.941071 
M534.015381,370.370056 
	C531.884705,370.582397 531.205078,371.900818 531.457336,373.837158 
	C531.685303,375.586884 533.081543,375.897491 534.429993,375.773438 
	C537.000854,375.537048 541.189636,377.279083 541.406311,373.359955 
	C541.627075,369.364685 537.418274,370.621918 534.015381,370.370056 
M533.176880,366.790344 
	C534.980652,366.785400 536.795288,366.900452 538.584961,366.739105 
	C540.133484,366.599487 541.255127,365.455505 540.429565,364.028809 
	C538.745911,361.119263 535.679565,362.109772 533.278809,362.499054 
	C530.780640,362.904144 530.945679,364.781830 533.176880,366.790344 
z"/>
<path fill="#000000" opacity="1.000000" stroke="none" 
	d="
M428.556152,365.894409 
	C431.333679,359.888519 434.747223,357.940002 440.992432,358.669891 
	C445.680908,359.217865 449.269440,361.323822 450.278290,366.313019 
	C451.195831,370.850952 450.604309,375.190094 446.408844,377.847870 
	C442.250977,380.481842 437.599548,381.120331 433.169556,378.365723 
	C428.691071,375.580841 427.273682,371.381866 428.556152,365.894409 
M437.205353,376.339813 
	C440.805176,377.000671 443.821106,376.149597 445.730560,372.819519 
	C447.301880,370.079163 446.817719,367.341461 445.224945,364.801056 
	C443.455109,361.978241 440.618652,361.870178 437.708435,362.172699 
	C434.857666,362.468994 433.135071,364.211853 432.570587,366.860687 
	C431.740448,370.756165 432.472076,374.160522 437.205353,376.339813 
z"/>
<path fill="#000000" opacity="1.000000" stroke="none" 
	d="
M591.460327,362.820282 
	C594.257446,368.992401 593.759033,373.763000 590.268250,376.892700 
	C586.616028,380.167145 580.489685,380.978851 576.316895,378.611816 
	C571.902283,376.107605 570.256897,372.138580 570.932800,367.249573 
	C571.476013,363.320740 573.636658,360.292206 577.508362,359.260864 
	C582.521057,357.925659 587.428345,358.125671 591.460327,362.820282 
M575.569397,372.546783 
	C578.000610,376.878937 581.626099,377.606323 585.716309,375.399963 
	C589.359619,373.434723 589.895264,369.979919 588.637024,366.320404 
	C587.204712,362.154816 583.695312,361.542328 580.062561,362.320892 
	C574.810242,363.446503 574.830383,367.571930 575.569397,372.546783 
z"/>
<path fill="#000000" opacity="1.000000" stroke="none" 
	d="
M637.060791,379.344666 
	C633.264587,379.619293 632.219543,376.476166 630.269836,374.592865 
	C628.968567,373.335938 627.832031,371.908447 626.789001,370.743927 
	C621.078613,371.022369 623.794006,377.329254 620.158691,379.329254 
	C617.515381,375.840179 619.039612,372.099243 618.719910,368.655365 
	C618.520691,366.508606 618.684509,364.326202 618.719543,362.160339 
	C618.739258,360.944092 618.935486,359.645813 620.438354,359.572510 
	C621.961487,359.498230 622.170044,360.757080 622.343140,361.985107 
	C622.568481,363.584045 621.903442,365.313416 623.160706,367.057098 
	C628.194092,365.402100 630.543518,358.559814 637.590149,358.944702 
	C635.716919,363.195679 631.500305,364.181458 629.821838,367.528381 
	C631.319885,370.653259 634.041626,372.703156 636.058228,375.307770 
	C636.896851,376.390900 639.349182,377.172668 637.060791,379.344666 
z"/>
<path fill="#000000" opacity="1.000000" stroke="none" 
	d="
M399.812195,375.808533 
	C401.704956,375.933777 403.299713,375.767944 403.872406,377.630096 
	C401.722198,379.207733 391.265747,380.097015 389.345306,378.892181 
	C389.207520,378.805725 389.048767,378.745117 388.928101,378.639954 
	C387.527008,377.419006 387.243622,361.536713 388.695129,360.227325 
	C390.382538,358.705139 391.584015,359.695923 391.846497,361.429565 
	C392.190308,363.700592 392.112244,366.044312 392.113312,368.356812 
	C392.116699,375.761810 392.098511,375.761810 399.812195,375.808533 
z"/>
</svg>